<svg width="122.44626464843749px" height="116.007470703125px" xmlns="http://www.w3.org/2000/svg" viewBox="188.77686767578126 16.996264648437503 122.44626464843749 116.007470703125" style="background: rgba(0, 0, 0, 0);" preserveAspectRatio="xMidYMid"><defs><filter id="editing-hole" x="-100%" y="-100%" width="300%" height="300%"><feFlood flood-color="#000000" result="black"></feFlood><feMorphology operator="dilate" radius="2" in="SourceGraphic" result="erode"></feMorphology><feGaussianBlur in="erode" stdDeviation="4" result="blur"></feGaussianBlur><feOffset in="blur" dx="2" dy="2" result="offset"></feOffset><feComposite operator="atop" in="offset" in2="black" result="merge"></feComposite><feComposite operator="in" in="merge" in2="SourceGraphic" result="inner-shadow"></feComposite></filter></defs><g filter="url(#editing-hole)"><g transform="translate(211.40906167030334, 94.8700008392334)"><path d="M39.94-39.74L41.28 0L31.23 0L31.23-20.74L30.66-20.74L26.88 0L16.58 0L12.99-20.74L12.35-20.74L12.35 0L2.43 0L3.78-39.74L18.18-39.74L21.76-18.24L22.27-18.24L25.73-39.74L39.94-39.74ZM67.58-19.20L74.69 0L62.59 0L57.79-14.98L57.15-14.98L57.15 0L46.53 0L46.53-39.74L57.15-39.74L57.15-23.10L57.79-23.10L63.55-39.74L75.33-39.74L67.58-19.20Z" fill="#000000"></path></g></g><style>text {
  font-size: 64px;
  font-family: Arial Black;
  dominant-baseline: central;
  text-anchor: middle;
}</style></svg>