<svg width="483" height="455" viewBox="0 0 483 455" fill="none" xmlns="http://www.w3.org/2000/svg">
<rect width="483" height="455" fill="#E5E5E5"/>
<rect width="483" height="455" fill="white"/>
<path d="M242 33.8872L430.516 131.38V323.62L242 421.113L53.484 323.62V131.38L242 33.8872Z" stroke="black" stroke-opacity="0.75" stroke-width="30"/>
<path d="M147.879 159.031L180.75 251.844L213.445 159.031H248.074V287H221.619V252.02L224.256 191.639L189.715 287H171.609L137.156 191.727L139.793 252.02V287H113.426V159.031H147.879ZM311.18 235.672L297.469 250.438V287H271.102V159.031H297.469V217.039L309.07 201.131L341.678 159.031H374.109L328.67 215.896L375.428 287H344.051L311.18 235.672Z" fill="black" fill-opacity="0.75"/>
</svg>
